<mxGraphModel dx="816" dy="549" grid="1" gridSize="10" guides="1" tooltips="1" connect="1" arrows="1" fold="1" page="1" pageScale="1" pageWidth="850" pageHeight="1100" math="0" shadow="0">
  <root>
    <mxCell id="0" />
    <mxCell id="1" parent="0" />
    <mxCell id="aM9ryv3xv72pqoxQDRHE-1" value=":Recurrence" style="shape=umlLifeline;rounded=1;perimeter=lifelinePerimeter;whiteSpace=wrap;html=1;container=0;dropTarget=0;collapsible=0;recursiveResize=0;outlineConnect=0;portConstraint=eastwest;newEdgeStyle={&quot;edgeStyle&quot;:&quot;elbowEdgeStyle&quot;,&quot;elbow&quot;:&quot;vertical&quot;,&quot;curved&quot;:0,&quot;rounded&quot;:0};" parent="1" vertex="1">
      <mxGeometry x="58" y="59" width="100" height="490" as="geometry" />
    </mxCell>
    <mxCell id="aM9ryv3xv72pqoxQDRHE-2" value="" style="html=1;points=[];perimeter=orthogonalPerimeter;outlineConnect=0;targetShapes=umlLifeline;portConstraint=eastwest;newEdgeStyle={&quot;edgeStyle&quot;:&quot;elbowEdgeStyle&quot;,&quot;elbow&quot;:&quot;vertical&quot;,&quot;curved&quot;:0,&quot;rounded&quot;:0};" parent="aM9ryv3xv72pqoxQDRHE-1" vertex="1">
      <mxGeometry x="45" y="60" width="10" height="340" as="geometry" />
    </mxCell>
    <mxCell id="aM9ryv3xv72pqoxQDRHE-5" value="copyEntry&lt;br&gt;:Income" style="shape=umlLifeline;rounded=1;perimeter=lifelinePerimeter;whiteSpace=wrap;html=1;container=0;dropTarget=0;collapsible=0;recursiveResize=0;outlineConnect=0;portConstraint=eastwest;newEdgeStyle={&quot;edgeStyle&quot;:&quot;elbowEdgeStyle&quot;,&quot;elbow&quot;:&quot;vertical&quot;,&quot;curved&quot;:0,&quot;rounded&quot;:0};" parent="1" vertex="1">
      <mxGeometry x="318" y="121" width="100" height="428" as="geometry" />
    </mxCell>
    <mxCell id="aM9ryv3xv72pqoxQDRHE-6" value="" style="html=1;points=[];perimeter=orthogonalPerimeter;outlineConnect=0;targetShapes=umlLifeline;portConstraint=eastwest;newEdgeStyle={&quot;edgeStyle&quot;:&quot;elbowEdgeStyle&quot;,&quot;elbow&quot;:&quot;vertical&quot;,&quot;curved&quot;:0,&quot;rounded&quot;:0};" parent="aM9ryv3xv72pqoxQDRHE-5" vertex="1">
      <mxGeometry x="45" y="40" width="10" height="20" as="geometry" />
    </mxCell>
    <mxCell id="aM9ryv3xv72pqoxQDRHE-7" value="Income(recurringIncome : Income)" style="html=1;verticalAlign=bottom;endArrow=block;edgeStyle=elbowEdgeStyle;elbow=vertical;curved=0;rounded=0;" parent="1" source="aM9ryv3xv72pqoxQDRHE-2" edge="1">
      <mxGeometry relative="1" as="geometry">
        <mxPoint x="213" y="149" as="sourcePoint" />
        <Array as="points">
          <mxPoint x="308" y="149" />
        </Array>
        <mxPoint x="318" y="149" as="targetPoint" />
      </mxGeometry>
    </mxCell>
    <mxCell id="aM9ryv3xv72pqoxQDRHE-8" value="&lt;font style=&quot;font-size: 12px;&quot;&gt;new copied Income object&lt;/font&gt;" style="html=1;verticalAlign=bottom;endArrow=block;dashed=1;endSize=8;edgeStyle=elbowEdgeStyle;elbow=vertical;curved=0;rounded=0;endFill=1;" parent="1" source="aM9ryv3xv72pqoxQDRHE-6" edge="1">
      <mxGeometry relative="1" as="geometry">
        <mxPoint x="113" y="181" as="targetPoint" />
        <Array as="points">
          <mxPoint x="208" y="181" />
        </Array>
        <mxPoint x="358" y="181" as="sourcePoint" />
      </mxGeometry>
    </mxCell>
    <mxCell id="KprL8Gtzc8UCZSi8YQah-1" value="opt" style="shape=umlFrame;whiteSpace=wrap;html=1;pointerEvents=0;" vertex="1" parent="1">
      <mxGeometry x="28" y="199" width="780" height="240" as="geometry" />
    </mxCell>
    <mxCell id="KprL8Gtzc8UCZSi8YQah-2" value="[Current date - last recurrence date &amp;gt; recurrence frequency]" style="text;html=1;align=center;verticalAlign=middle;whiteSpace=wrap;rounded=0;" vertex="1" parent="1">
      <mxGeometry x="128" y="199" width="330" height="30" as="geometry" />
    </mxCell>
    <mxCell id="KprL8Gtzc8UCZSi8YQah-3" value="loop" style="shape=umlFrame;whiteSpace=wrap;html=1;pointerEvents=0;" vertex="1" parent="1">
      <mxGeometry x="38" y="239" width="740" height="180" as="geometry" />
    </mxCell>
    <mxCell id="KprL8Gtzc8UCZSi8YQah-4" value="[checkDate is after current date]" style="text;html=1;align=center;verticalAlign=middle;whiteSpace=wrap;rounded=0;" vertex="1" parent="1">
      <mxGeometry x="98" y="232" width="210" height="30" as="geometry" />
    </mxCell>
    <mxCell id="KprL8Gtzc8UCZSi8YQah-5" value="" style="shape=note;whiteSpace=wrap;html=1;backgroundOutline=1;darkOpacity=0.05;rotation=90;size=23;" vertex="1" parent="1">
      <mxGeometry x="192" y="429" width="80" height="160" as="geometry" />
    </mxCell>
    <mxCell id="KprL8Gtzc8UCZSi8YQah-6" value="checkDate is the last recurred date of the entry, loop increments checkDate by recurrence frequency" style="text;html=1;align=center;verticalAlign=middle;whiteSpace=wrap;rounded=0;" vertex="1" parent="1">
      <mxGeometry x="157" y="490" width="144.67" height="31" as="geometry" />
    </mxCell>
    <mxCell id="KprL8Gtzc8UCZSi8YQah-7" value="" style="endArrow=none;dashed=1;html=1;rounded=0;" edge="1" parent="1">
      <mxGeometry width="50" height="50" relative="1" as="geometry">
        <mxPoint x="228" y="469" as="sourcePoint" />
        <mxPoint x="278" y="419" as="targetPoint" />
      </mxGeometry>
    </mxCell>
    <mxCell id="KprL8Gtzc8UCZSi8YQah-8" value="newEntry&lt;br&gt;:Income" style="shape=umlLifeline;rounded=1;perimeter=lifelinePerimeter;whiteSpace=wrap;html=1;container=0;dropTarget=0;collapsible=0;recursiveResize=0;outlineConnect=0;portConstraint=eastwest;newEdgeStyle={&quot;edgeStyle&quot;:&quot;elbowEdgeStyle&quot;,&quot;elbow&quot;:&quot;vertical&quot;,&quot;curved&quot;:0,&quot;rounded&quot;:0};" vertex="1" parent="1">
      <mxGeometry x="468" y="307" width="100" height="242" as="geometry" />
    </mxCell>
    <mxCell id="KprL8Gtzc8UCZSi8YQah-9" value="" style="html=1;points=[];perimeter=orthogonalPerimeter;outlineConnect=0;targetShapes=umlLifeline;portConstraint=eastwest;newEdgeStyle={&quot;edgeStyle&quot;:&quot;elbowEdgeStyle&quot;,&quot;elbow&quot;:&quot;vertical&quot;,&quot;curved&quot;:0,&quot;rounded&quot;:0};" vertex="1" parent="KprL8Gtzc8UCZSi8YQah-8">
      <mxGeometry x="45" y="40" width="10" height="20" as="geometry" />
    </mxCell>
    <mxCell id="KprL8Gtzc8UCZSi8YQah-16" value="" style="html=1;points=[];perimeter=orthogonalPerimeter;outlineConnect=0;targetShapes=umlLifeline;portConstraint=eastwest;newEdgeStyle={&quot;edgeStyle&quot;:&quot;elbowEdgeStyle&quot;,&quot;elbow&quot;:&quot;vertical&quot;,&quot;curved&quot;:0,&quot;rounded&quot;:0};" vertex="1" parent="1">
      <mxGeometry x="363" y="277" width="10" height="30" as="geometry" />
    </mxCell>
    <mxCell id="KprL8Gtzc8UCZSi8YQah-17" value="" style="endArrow=block;html=1;rounded=0;endFill=1;" edge="1" parent="1" source="aM9ryv3xv72pqoxQDRHE-2">
      <mxGeometry width="50" height="50" relative="1" as="geometry">
        <mxPoint x="263" y="329" as="sourcePoint" />
        <mxPoint x="468" y="329" as="targetPoint" />
      </mxGeometry>
    </mxCell>
    <mxCell id="KprL8Gtzc8UCZSi8YQah-18" value="&lt;span style=&quot;text-wrap-mode: nowrap; background-color: rgb(255, 255, 255);&quot;&gt;&lt;font style=&quot;font-size: 12px;&quot;&gt;Income(copyEntry : Income)&lt;/font&gt;&lt;/span&gt;" style="text;html=1;align=center;verticalAlign=middle;whiteSpace=wrap;rounded=0;" vertex="1" parent="1">
      <mxGeometry x="218" y="304" width="60" height="30" as="geometry" />
    </mxCell>
    <mxCell id="KprL8Gtzc8UCZSi8YQah-19" value="&lt;font style=&quot;font-size: 12px;&quot;&gt;new copied Income object&lt;/font&gt;" style="html=1;verticalAlign=bottom;endArrow=block;dashed=1;endSize=8;edgeStyle=elbowEdgeStyle;elbow=vertical;curved=0;rounded=0;endFill=1;" edge="1" parent="1">
      <mxGeometry relative="1" as="geometry">
        <mxPoint x="113" y="367" as="targetPoint" />
        <Array as="points">
          <mxPoint x="358" y="367" />
        </Array>
        <mxPoint x="513" y="367" as="sourcePoint" />
      </mxGeometry>
    </mxCell>
    <mxCell id="KprL8Gtzc8UCZSi8YQah-20" value="incomes&lt;div&gt;: IncomeList&lt;/div&gt;" style="shape=umlLifeline;rounded=1;perimeter=lifelinePerimeter;whiteSpace=wrap;html=1;container=0;dropTarget=0;collapsible=0;recursiveResize=0;outlineConnect=0;portConstraint=eastwest;newEdgeStyle={&quot;edgeStyle&quot;:&quot;elbowEdgeStyle&quot;,&quot;elbow&quot;:&quot;vertical&quot;,&quot;curved&quot;:0,&quot;rounded&quot;:0};" vertex="1" parent="1">
      <mxGeometry x="588" y="59" width="100" height="490" as="geometry" />
    </mxCell>
    <mxCell id="KprL8Gtzc8UCZSi8YQah-21" value="" style="html=1;points=[];perimeter=orthogonalPerimeter;outlineConnect=0;targetShapes=umlLifeline;portConstraint=eastwest;newEdgeStyle={&quot;edgeStyle&quot;:&quot;elbowEdgeStyle&quot;,&quot;elbow&quot;:&quot;vertical&quot;,&quot;curved&quot;:0,&quot;rounded&quot;:0};" vertex="1" parent="KprL8Gtzc8UCZSi8YQah-20">
      <mxGeometry x="45" y="60" width="10" height="340" as="geometry" />
    </mxCell>
    <mxCell id="KprL8Gtzc8UCZSi8YQah-22" value="" style="endArrow=block;html=1;rounded=0;endFill=1;" edge="1" parent="1">
      <mxGeometry width="50" height="50" relative="1" as="geometry">
        <mxPoint x="112" y="389" as="sourcePoint" />
        <mxPoint x="633" y="389" as="targetPoint" />
      </mxGeometry>
    </mxCell>
    <mxCell id="KprL8Gtzc8UCZSi8YQah-23" value="add(newEntry : Income)" style="text;html=1;align=center;verticalAlign=middle;whiteSpace=wrap;rounded=0;" vertex="1" parent="1">
      <mxGeometry x="174" y="365" width="141" height="30" as="geometry" />
    </mxCell>
    <mxCell id="KprL8Gtzc8UCZSi8YQah-24" value="" style="html=1;verticalAlign=bottom;endArrow=block;dashed=1;endSize=8;edgeStyle=elbowEdgeStyle;elbow=vertical;curved=0;rounded=0;endFill=1;" edge="1" parent="1" target="aM9ryv3xv72pqoxQDRHE-2">
      <mxGeometry relative="1" as="geometry">
        <mxPoint x="118" y="408" as="targetPoint" />
        <Array as="points">
          <mxPoint x="363" y="408" />
        </Array>
        <mxPoint x="632" y="408" as="sourcePoint" />
      </mxGeometry>
    </mxCell>
    <mxCell id="KprL8Gtzc8UCZSi8YQah-25" value="return" style="text;html=1;align=center;verticalAlign=middle;whiteSpace=wrap;rounded=0;" vertex="1" parent="1">
      <mxGeometry x="247" y="384" width="60" height="30" as="geometry" />
    </mxCell>
    <mxCell id="KprL8Gtzc8UCZSi8YQah-12" value="editDateWithLocalDate(checkDate : LocalDate)" style="text;html=1;align=center;verticalAlign=middle;whiteSpace=wrap;rounded=0;" vertex="1" parent="1">
      <mxGeometry x="104.5" y="251" width="270" height="30" as="geometry" />
    </mxCell>
    <mxCell id="KprL8Gtzc8UCZSi8YQah-26" value="sd&amp;nbsp; &amp;nbsp; &amp;nbsp;add recurring entry" style="shape=umlFrame;whiteSpace=wrap;html=1;pointerEvents=0;width=210;height=30;" vertex="1" parent="1">
      <mxGeometry x="10" y="20" width="810" height="540" as="geometry" />
    </mxCell>
    <mxCell id="KprL8Gtzc8UCZSi8YQah-30" value="" style="endArrow=block;html=1;rounded=0;endFill=1;" edge="1" parent="1" source="aM9ryv3xv72pqoxQDRHE-2">
      <mxGeometry width="50" height="50" relative="1" as="geometry">
        <mxPoint x="116" y="277" as="sourcePoint" />
        <mxPoint x="363" y="277" as="targetPoint" />
      </mxGeometry>
    </mxCell>
    <mxCell id="KprL8Gtzc8UCZSi8YQah-31" value="&lt;font style=&quot;font-size: 12px;&quot;&gt;return&lt;/font&gt;" style="html=1;verticalAlign=bottom;endArrow=block;dashed=1;endSize=8;edgeStyle=elbowEdgeStyle;elbow=vertical;curved=0;rounded=0;endFill=1;" edge="1" parent="1">
      <mxGeometry relative="1" as="geometry">
        <mxPoint x="113" y="307" as="targetPoint" />
        <Array as="points">
          <mxPoint x="208" y="307" />
        </Array>
        <mxPoint x="363" y="307" as="sourcePoint" />
      </mxGeometry>
    </mxCell>
  </root>
</mxGraphModel>
